<?xml version="1.0" standalone="no"?>
<!DOCTYPE svg PUBLIC "-//W3C//DTD SVG 20010904//EN"
 "http://www.w3.org/TR/2001/REC-SVG-20010904/DTD/svg10.dtd">
<svg version="1.0" xmlns="http://www.w3.org/2000/svg"
 width="472.000000pt" height="472.000000pt" viewBox="0 0 472.000000 472.000000"
 preserveAspectRatio="xMidYMid meet">

<g transform="translate(0.000000,472.000000) scale(0.100000,-0.100000)"
fill="#000000" stroke="none">
<path d="M2071 3850 c-122 -17 -300 -83 -415 -153 -171 -104 -410 -316 -528
-468 -34 -43 -63 -79 -65 -79 -1 0 -22 18 -45 41 -24 23 -82 59 -136 85 -52
25 -124 65 -160 90 -49 34 -74 44 -104 44 -68 0 -117 -40 -118 -95 0 -38 12
-56 120 -175 47 -52 109 -125 138 -162 29 -36 69 -80 89 -96 l37 -29 -26 -44
c-39 -67 -144 -336 -174 -447 -15 -53 -35 -142 -44 -197 -10 -55 -30 -152 -46
-215 -53 -223 -33 -373 63 -480 128 -142 285 -140 489 6 39 28 76 54 82 58 14
8 -9 -70 -50 -174 -34 -85 -32 -122 8 -169 32 -38 102 -65 147 -57 88 16 174
104 253 257 53 103 80 129 136 129 53 0 92 -22 112 -64 21 -45 20 -90 -5 -209
-13 -59 -19 -111 -15 -132 14 -72 98 -134 182 -135 86 0 198 86 282 220 19 30
36 56 37 57 1 2 19 -6 40 -17 112 -57 224 2 317 167 17 29 34 53 40 53 6 0 47
17 93 39 l83 39 -5 -117 c-4 -107 -3 -119 19 -160 29 -57 64 -82 122 -88 64
-8 125 18 176 73 53 57 126 208 145 299 12 59 20 74 52 102 21 18 45 30 53 27
29 -11 186 -23 250 -20 119 6 221 31 287 70 83 49 113 86 113 140 0 66 -22 80
-112 73 -83 -8 -109 -2 -233 48 -130 54 -129 51 -108 160 27 142 25 454 -5
610 -71 370 -266 700 -511 865 -165 111 -319 160 -561 179 -69 6 -157 19 -197
30 -87 24 -215 33 -302 21z m-1364 -560 c40 -28 96 -61 125 -72 73 -30 112
-56 188 -125 l64 -59 -17 -45 c-10 -25 -32 -60 -51 -78 -33 -32 -35 -32 -62
-17 -44 24 -105 83 -172 167 -34 42 -95 113 -137 159 -74 81 -87 104 -62 113
30 13 55 4 124 -43z m1470 -57 c15 -23 18 -49 17 -168 0 -124 -3 -149 -27
-220 -29 -88 -69 -153 -145 -236 l-50 -55 15 -54 c9 -31 15 -98 16 -155 0 -88
-4 -111 -32 -192 -30 -88 -31 -96 -21 -155 25 -145 81 -283 145 -355 38 -45
132 -103 208 -129 l45 -15 -25 -52 c-122 -257 -214 -375 -308 -393 -45 -8
-104 21 -120 59 -10 24 -9 46 9 130 27 138 26 201 -5 256 -31 57 -61 78 -130
92 -46 9 -66 8 -112 -5 -50 -15 -60 -22 -92 -71 -20 -30 -45 -77 -55 -105 -31
-84 -95 -160 -168 -199 -32 -17 -88 2 -106 37 -13 24 -12 33 9 83 13 30 42
118 65 194 23 77 44 148 47 158 3 9 0 17 -6 17 -13 0 -126 -75 -216 -144 -33
-26 -92 -63 -132 -82 -66 -33 -77 -36 -141 -32 -57 3 -76 9 -105 31 -46 35
-86 87 -103 134 -29 81 -13 283 33 418 16 48 17 49 23 21 11 -59 102 -90 164
-57 14 8 54 58 88 110 33 53 80 121 103 151 90 117 283 295 420 387 80 53 256
141 303 151 33 7 41 15 78 83 22 42 68 109 103 150 34 41 74 97 88 124 34 67
71 115 88 115 8 0 23 -12 32 -27z m-1142 -643 c22 -23 26 -33 17 -42 -9 -9
-16 -7 -32 7 -19 18 -21 18 -40 0 -16 -14 -23 -16 -32 -7 -9 9 -5 19 17 42 16
16 32 30 35 30 3 0 19 -14 35 -30z m-99 -61 c10 -17 -13 -36 -27 -22 -12 12
-4 33 11 33 5 0 12 -5 16 -11z m80 0 c3 -6 1 -16 -5 -22 -6 -6 -11 -18 -11
-26 0 -11 4 -10 20 4 16 14 23 16 32 7 10 -10 5 -20 -20 -44 l-32 -33 -32 33
c-25 24 -30 34 -21 43 9 9 16 9 28 -1 13 -11 14 -10 9 4 -12 32 15 62 32 35z
m80 0 c10 -17 -13 -36 -27 -22 -12 12 -4 33 11 33 5 0 12 -5 16 -11z m1651
-111 c57 -57 103 -107 103 -113 0 -6 -16 -26 -35 -45 l-35 -34 -70 69 -70 69
-70 -69 -70 -69 -35 34 c-19 19 -35 39 -35 44 0 10 200 216 210 216 2 0 51
-46 107 -102z m-63 -207 l39 -40 -41 -49 c-23 -27 -48 -55 -57 -62 -14 -12
-13 -15 6 -37 21 -21 21 -23 4 -23 -15 0 -16 -3 -7 -12 10 -10 27 3 82 57 l70
70 40 -40 40 -40 -110 -110 -110 -110 -105 105 c-58 58 -105 109 -105 115 0 6
16 26 35 45 l35 34 45 -44 c24 -24 48 -41 51 -37 4 4 0 15 -9 25 -9 10 -20 40
-23 66 -7 45 -5 49 32 87 21 21 41 39 44 39 3 0 23 -18 44 -39z m-274 -6 l34
-35 -34 -35 c-19 -19 -39 -35 -45 -35 -6 0 -26 16 -45 35 l-34 35 34 35 c19
19 39 35 45 35 6 0 26 -16 45 -35z m550 0 l34 -35 -34 -35 c-19 -19 -39 -35
-45 -35 -6 0 -26 16 -45 35 l-34 35 34 35 c19 19 39 35 45 35 6 0 26 -16 45
-35z m233 -569 c23 0 55 3 70 7 28 8 29 7 22 -25 -4 -18 -18 -64 -31 -103 -13
-38 -26 -77 -28 -86 -18 -73 -93 -165 -145 -179 -107 -29 -149 49 -121 224 5
33 12 82 15 107 l6 45 62 21 c56 19 64 19 85 5 13 -8 42 -15 65 -16z"/>
<path d="M1350 2367 c-45 -23 -68 -110 -35 -137 19 -16 73 -4 103 23 58 53 1
149 -68 114z"/>
<path d="M872 1588 c-17 -17 -15 -48 2 -48 8 0 22 7 31 16 12 12 13 19 4 30
-14 17 -21 18 -37 2z"/>
</g>
</svg>
