<?xml version="1.0" standalone="no"?>
<!DOCTYPE svg PUBLIC "-//W3C//DTD SVG 1.0//EN" "http://www.w3.org/TR/2001/REC-SVG-20010904/DTD/svg10.dtd">
<svg xmlns="http://www.w3.org/2000/svg" xmlns:xlink="http://www.w3.org/1999/xlink" id="body_1" width="50" height="50">

<g transform="matrix(0.2923977 0 0 0.2923977 0 0)">
    <path transform="matrix(0.1335938 0 0 -0.1335938 0 171.0001)"  d="M535 1041C 478 1026 420 989 352 926L352 926L285 863L230 896C 167 934 157 936 140 915C 126 898 128 894 194 816L194 816L233 770L211 717C 187 661 150 504 150 459C 150 444 162 418 176 401C 207 364 249 360 299 391C 327 408 332 409 326 395C 308 347 309 332 331 317C 361 295 398 315 428 369C 452 411 483 423 494 395C 497 386 497 360 494 336C 488 297 490 290 512 276C 544 255 579 267 609 308C 625 331 635 336 656 332C 677 328 689 335 720 369C 741 391 763 410 769 410C 775 410 780 395 780 376C 780 336 799 317 837 322C 859 324 870 335 887 370C 899 395 911 423 914 433C 918 447 931 450 985 450C 1074 450 1126 478 1113 518C 1110 524 1093 530 1075 530C 1056 530 1029 535 1015 542C 990 553 989 556 996 620C 1011 780 937 940 817 1001C 760 1031 588 1055 535 1041zM229 872C 286 837 300 816 279 795C 264 780 259 783 214 830C 187 858 164 885 162 890C 156 907 184 899 229 872zM595 823C 594 785 587 762 566 730C 547 701 540 679 543 662C 551 622 525 542 494 507L494 507L465 475L498 504C 526 530 530 531 530 514C 530 484 568 430 599 417C 625 406 626 403 616 373C 600 326 563 288 537 292C 513 295 511 310 524 367C 537 424 472 463 428 423C 418 414 410 399 410 390C 410 370 374 330 356 330C 332 330 332 341 351 397C 361 428 368 455 366 457C 364 460 338 445 310 426C 281 406 248 390 235 390C 191 390 164 446 178 510C 185 540 189 545 212 542C 233 539 244 547 269 583C 310 643 392 715 449 741C 483 758 505 778 534 822C 555 854 578 879 584 877C 590 875 595 851 595 823zM289 696C 298 686 296 680 284 669C 271 659 267 659 260 670C 251 684 257 710 270 710C 274 710 283 704 289 696zM747 658C 760 646 770 631 770 623C 770 605 745 606 730 625C 718 639 715 639 699 624C 667 595 656 619 686 651C 701 667 716 680 719 680C 721 680 734 670 747 658zM653 579C 636 562 616 578 631 596C 639 606 646 608 654 600C 661 593 661 587 653 579zM722 570C 704 541 707 535 730 555C 746 569 753 571 762 562C 771 553 768 544 750 525C 721 494 709 494 681 524C 657 550 661 576 687 566C 697 562 700 564 697 574C 690 593 711 613 724 600C 731 593 731 583 722 570zM810 590C 810 585 805 578 799 574C 785 566 766 585 774 599C 781 610 810 603 810 590zM880 425C 880 417 876 410 870 410C 865 410 863 404 866 396C 874 375 852 340 830 340C 803 340 797 355 805 400C 811 437 814 440 846 440C 870 440 880 435 880 425z" stroke="none" fill="#000000" fill-rule="nonzero" />
    <path transform="matrix(0.1335938 0 0 -0.1335938 0 171.0001)"  d="M354 629C 351 623 352 614 358 608C 371 595 390 606 390 626C 390 642 364 645 354 629z" stroke="none" fill="#000000" fill-rule="nonzero" />
    <path transform="matrix(0.1335938 0 0 -0.1335938 0 171.0001)"  d="M553 373C 562 371 576 371 583 373C 589 376 582 378 565 378C 549 378 543 376 553 373z" stroke="none" fill="#000000" fill-rule="nonzero" />
</g>
</svg>